<?xml version="1.0" standalone="no"?>
<!DOCTYPE svg PUBLIC "-//W3C//DTD SVG 20010904//EN"
 "http://www.w3.org/TR/2001/REC-SVG-20010904/DTD/svg10.dtd">
<svg version="1.0" xmlns="http://www.w3.org/2000/svg"
 width="500.000000pt" height="500.000000pt" viewBox="0 0 500.000000 500.000000"
 preserveAspectRatio="xMidYMid meet">
<metadata>
Created by potrace 1.11, written by Peter Selinger 2001-2013
</metadata>
<g transform="translate(0.000000,500.000000) scale(0.100000,-0.100000)"
fill="#000000" stroke="none">
<path d="M2067 4983 c-9 -14 26 -53 47 -53 10 0 15 -4 12 -9 -3 -5 5 -12 19
-15 13 -3 36 -18 50 -32 27 -27 34 -44 10 -24 -8 6 -18 9 -24 6 -5 -4 -15 0
-23 7 -7 7 -22 12 -33 12 -11 0 -28 6 -37 13 -9 8 -22 11 -27 7 -6 -3 -11 -2
-11 3 0 5 -6 9 -12 10 -20 1 -57 10 -67 16 -5 4 -12 0 -14 -6 -4 -10 -6 -10
-6 0 -1 7 -14 12 -31 12 -16 0 -30 5 -30 11 0 6 -7 8 -15 5 -8 -3 -22 -9 -32
-13 -11 -4 -14 -3 -9 5 5 8 -5 12 -33 13 -50 2 -53 2 -68 12 -6 4 -14 1 -16
-5 -4 -10 -6 -10 -6 0 -1 10 -6 10 -21 2 -15 -8 -20 -8 -20 2 0 8 -3 9 -8 3
-9 -13 -52 -15 -52 -2 0 5 -8 3 -17 -4 -13 -11 -15 -11 -9 -1 6 10 0 9 -23 -2
-36 -19 -40 -27 -11 -21 11 2 18 0 15 -4 -2 -5 2 -14 10 -21 8 -7 15 -9 15 -5
0 5 8 -2 19 -13 10 -12 27 -22 37 -22 13 0 15 -3 7 -11 -8 -8 -21 -8 -50 2
-21 7 -41 12 -45 11 -5 -1 -8 3 -8 9 0 8 -5 7 -16 -2 -12 -9 -17 -10 -23 -1
-4 6 -28 13 -54 14 -26 2 -47 8 -47 13 0 6 -5 3 -10 -5 -8 -12 -10 -12 -10 -1
0 8 -3 12 -6 8 -3 -3 -17 -2 -30 3 -17 7 -24 6 -24 -3 0 -8 -4 -7 -10 3 -5 8
-10 10 -10 5 0 -13 -68 -7 -76 6 -3 5 -14 5 -25 -1 -14 -8 -19 -7 -19 1 0 8
-4 8 -15 -1 -12 -10 -15 -10 -15 0 0 10 -3 10 -15 0 -12 -10 -15 -10 -15 0 0
10 -3 10 -14 1 -11 -9 -15 -9 -19 1 -4 11 -6 10 -6 0 -1 -7 -5 -11 -9 -8 -5 3
-9 -1 -9 -9 0 -8 4 -12 9 -9 4 3 8 -2 8 -10 0 -9 7 -16 16 -16 8 0 12 -4 9
-10 -3 -5 0 -10 8 -10 15 0 32 -27 28 -43 -1 -5 3 -6 9 -2 6 3 16 0 23 -7 8
-7 26 -22 41 -33 15 -11 37 -28 48 -37 12 -10 25 -18 30 -18 5 0 7 -4 4 -9 -3
-4 5 -7 19 -6 17 2 22 -1 18 -11 -3 -8 1 -14 9 -14 7 0 20 -9 28 -20 10 -14
16 -16 22 -7 5 8 8 6 8 -7 0 -11 5 -16 14 -13 18 7 36 -12 29 -31 -5 -11 -3
-13 7 -7 9 6 11 4 5 -5 -6 -10 -13 -7 -27 11 -11 13 -17 19 -14 12 9 -17 -20
-10 -44 12 -11 10 -20 14 -20 9 0 -5 -7 0 -15 10 -8 11 -15 14 -15 7 0 -7 -5
-9 -10 -6 -6 4 -7 11 -4 17 4 6 2 8 -4 4 -5 -3 -13 0 -15 6 -4 10 -6 10 -6 1
-1 -18 -21 -16 -21 2 0 8 -5 15 -11 15 -5 0 -7 -4 -4 -10 3 -6 -1 -7 -9 -4 -9
3 -16 11 -16 17 0 6 -2 8 -5 5 -10 -9 7 -38 22 -38 8 0 13 -5 11 -12 -5 -13
60 -75 73 -71 5 2 6 -4 3 -11 -3 -9 3 -17 15 -21 12 -3 21 -13 21 -21 0 -8 5
-12 10 -9 6 3 10 -1 10 -9 0 -8 9 -18 20 -21 11 -4 18 -11 15 -16 -4 -5 1 -9
9 -9 9 0 16 -7 16 -16 0 -8 4 -13 9 -9 5 3 12 -4 16 -15 3 -11 13 -20 21 -20
8 0 14 -7 14 -16 0 -8 3 -13 8 -11 9 6 33 -19 25 -27 -4 -3 1 -6 10 -6 10 0
17 -6 17 -13 0 -8 11 -19 25 -25 14 -7 30 -23 35 -37 5 -14 14 -25 20 -25 16
0 70 -52 64 -61 -3 -5 2 -6 10 -3 9 3 16 1 16 -5 0 -6 7 -11 15 -11 8 0 15 -8
15 -17 0 -15 2 -16 10 -3 8 13 10 13 10 -2 0 -9 5 -20 12 -24 7 -4 8 -3 4 4
-5 8 -1 10 9 6 10 -4 15 -14 12 -26 -5 -16 -3 -17 9 -7 8 7 14 7 14 1 0 -5 9
-12 19 -15 10 -2 24 -15 31 -28 11 -24 11 -24 -9 1 -14 16 -19 18 -15 8 3 -10
1 -18 -5 -18 -6 0 -11 5 -11 10 0 6 -11 10 -25 10 -16 0 -25 6 -25 16 0 8 -5
12 -11 8 -6 -3 -14 -3 -18 2 -3 5 -16 14 -28 21 -17 10 -24 9 -34 -3 -10 -12
-9 -13 3 -9 9 4 18 -1 22 -10 3 -9 11 -13 17 -9 7 4 9 3 6 -3 -4 -6 2 -18 13
-28 11 -10 17 -22 14 -26 -3 -5 2 -6 10 -3 17 6 38 -11 49 -38 3 -10 13 -18
22 -18 8 0 15 -4 15 -9 0 -5 9 -13 20 -16 11 -3 20 -13 20 -21 0 -8 6 -14 14
-14 8 0 17 -7 20 -16 3 -8 10 -12 16 -9 5 3 10 2 10 -4 0 -5 9 -13 20 -16 11
-3 20 -13 20 -21 0 -8 6 -14 13 -14 7 0 18 -9 25 -20 7 -11 19 -20 28 -20 8 0
12 -4 9 -10 -5 -9 15 -15 37 -11 5 0 7 -5 5 -12 -1 -6 4 -11 11 -10 6 2 12 -5
13 -15 0 -9 3 -12 5 -5 4 8 11 7 23 -5 10 -9 16 -21 13 -26 -3 -5 2 -7 11 -3
11 4 26 -3 42 -19 14 -14 25 -20 25 -13 0 6 9 0 20 -14 12 -15 27 -24 35 -20
8 3 15 0 15 -6 0 -6 6 -10 13 -8 6 1 11 -3 10 -9 -1 -6 9 -10 23 -8 13 1 31
-4 38 -12 8 -8 24 -14 36 -14 12 0 19 -4 16 -8 -4 -7 9 -11 51 -14 7 -1 10 -5
8 -9 -3 -4 2 -10 11 -13 10 -4 13 -2 8 7 -5 8 -2 7 9 -2 9 -7 17 -10 17 -7 0
4 7 0 16 -8 8 -9 21 -13 27 -9 7 3 9 2 4 -2 -10 -12 -47 -14 -47 -3 0 5 -6 6
-12 2 -17 -11 -80 -11 -95 -1 -6 5 -28 9 -47 10 -20 1 -36 4 -36 7 0 3 -14 6
-32 7 -18 0 -34 6 -36 11 -2 6 -9 9 -16 6 -8 -3 -20 1 -27 9 -8 8 -27 12 -44
10 -19 -3 -33 1 -41 12 -6 9 -20 17 -30 19 -51 10 -74 19 -74 28 0 5 -6 8 -12
6 -7 -1 -23 3 -35 10 -13 7 -23 10 -23 6 0 -4 -10 1 -22 12 -13 12 -18 13 -13
4 8 -13 7 -13 -11 0 -10 8 -22 19 -25 23 -3 5 -10 8 -15 8 -21 -2 -44 11 -44
25 0 8 -5 14 -12 14 -6 0 -8 3 -5 7 4 3 0 11 -9 17 -8 6 -16 19 -18 29 -1 9
-12 28 -25 41 -13 14 -21 29 -17 34 3 5 -6 14 -19 20 -15 7 -25 8 -25 2 0 -6
5 -10 10 -10 6 0 10 -6 9 -12 -2 -20 12 -58 22 -58 5 0 9 -7 9 -15 0 -8 5 -15
11 -15 5 0 7 -4 4 -10 -3 -5 -1 -10 5 -10 6 0 8 -5 4 -12 -5 -8 -11 -6 -19 5
-7 9 -15 14 -18 10 -4 -3 -7 0 -7 7 0 7 -3 10 -7 7 -11 -11 -32 14 -26 30 4
10 2 14 -4 10 -11 -7 -45 28 -36 37 4 3 1 6 -6 6 -7 0 -9 5 -6 10 3 6 1 10 -5
10 -6 0 -8 5 -5 10 3 6 2 10 -4 10 -5 0 -8 9 -6 20 2 11 0 18 -6 15 -5 -4 -9
3 -9 13 0 11 -7 22 -15 26 -8 3 -15 10 -15 16 0 6 6 8 13 4 6 -4 8 -3 4 1 -4
5 -14 10 -22 11 -12 2 -12 -2 -5 -17 6 -10 8 -19 5 -19 -4 0 1 -7 10 -16 13
-14 14 -19 3 -25 -11 -7 -11 -9 0 -9 8 0 12 -6 9 -12 -2 -7 3 -18 10 -23 8 -6
15 -17 16 -25 2 -8 6 -20 10 -27 8 -13 -18 -12 -30 2 -4 4 -2 5 6 0 10 -5 12
-4 7 4 -4 6 -12 8 -18 5 -6 -4 -13 -3 -17 2 -3 5 -17 15 -30 22 -19 11 -22 11
-15 0 4 -7 -4 -3 -18 10 -13 12 -28 19 -31 15 -4 -3 -18 6 -31 21 -15 19 -26
24 -30 17 -5 -8 -17 -2 -34 17 -15 16 -35 28 -44 26 -9 -1 -19 4 -22 12 -3 8
-12 14 -21 14 -8 0 -15 5 -15 10 0 6 -6 10 -14 10 -8 0 -17 7 -20 16 -4 9 -9
14 -13 10 -3 -3 -12 3 -20 14 -8 11 -21 20 -29 20 -8 0 -14 5 -14 11 0 6 -7 9
-15 5 -9 -3 -15 1 -15 11 0 13 -2 14 -17 2 -10 -8 -14 -9 -10 -2 4 6 3 14 -3
18 -5 3 -10 0 -10 -7 0 -8 -5 -6 -11 5 -5 9 -17 17 -24 17 -8 0 -15 5 -15 10
0 6 -5 10 -11 10 -6 0 -17 7 -26 15 -8 8 -19 13 -24 10 -5 -4 -9 -1 -9 4 0 6
-7 11 -16 11 -9 0 -12 5 -8 12 4 6 3 8 -4 4 -6 -3 -17 1 -25 9 -16 16 -37 20
-37 8 0 -5 -14 -9 -31 -10 -34 -3 -62 -20 -53 -34 3 -5 -3 -6 -12 -2 -11 4
-15 3 -10 -5 3 -6 -3 -13 -15 -17 -11 -4 -18 -9 -15 -12 3 -4 1 -12 -5 -20 -9
-10 -8 -13 0 -13 7 0 9 -5 6 -10 -4 -6 -9 -8 -13 -6 -13 8 -5 -83 8 -99 7 -9
9 -15 4 -14 -20 4 -24 -2 -14 -21 8 -14 8 -20 0 -20 -7 0 -8 -6 -1 -19 10 -17
6 -64 -5 -83 -3 -5 0 -7 7 -6 6 2 14 -3 17 -11 3 -9 0 -11 -8 -6 -9 6 -9 3 -1
-13 8 -15 8 -23 0 -27 -7 -5 -5 -13 6 -25 9 -10 12 -21 7 -24 -5 -3 -5 -29 0
-63 5 -32 9 -64 9 -70 -1 -7 -1 -19 -1 -25 -1 -7 3 -32 8 -55 7 -31 6 -43 -2
-43 -6 0 -4 -5 4 -10 11 -7 11 -10 2 -10 -10 0 -10 -5 -2 -20 6 -12 7 -20 1
-20 -6 0 -6 -11 -1 -30 5 -17 5 -30 0 -30 -5 0 -7 -9 -5 -20 2 -11 -1 -20 -6
-20 -6 0 -9 -6 -6 -12 2 -7 -4 -29 -14 -48 -13 -23 -15 -36 -8 -41 8 -5 8 -8
0 -13 -6 -4 -9 -11 -6 -16 3 -5 1 -11 -4 -15 -6 -3 -8 -12 -4 -20 3 -9 -1 -15
-8 -15 -11 0 -11 -3 1 -10 8 -5 10 -10 4 -10 -7 0 -15 -7 -18 -16 -4 -10 -2
-13 7 -8 8 6 8 3 -1 -9 -8 -9 -10 -22 -6 -28 4 -7 3 -9 -4 -5 -6 3 -14 -3 -17
-15 -5 -15 -10 -18 -18 -10 -7 7 -18 4 -37 -9 -15 -11 -30 -17 -34 -13 -3 3
-6 1 -6 -6 0 -7 -6 -11 -14 -8 -16 6 -30 -30 -15 -39 5 -3 9 0 9 6 0 6 4 9 9
5 5 -3 13 0 16 6 4 5 14 8 22 5 9 -4 11 -2 7 6 -5 8 -2 9 10 5 9 -4 15 -3 11
3 -3 5 3 8 14 7 20 -1 23 -32 2 -32 -6 0 -15 -4 -19 -10 -7 -10 -27 -17 -49
-18 -7 0 -13 -5 -13 -10 0 -6 -3 -8 -6 -4 -4 3 -13 -1 -21 -9 -9 -8 -22 -13
-31 -9 -12 4 -13 3 -2 -10 11 -13 10 -14 -4 -9 -9 3 -16 1 -16 -5 0 -6 -7 -11
-15 -11 -8 0 -15 -5 -15 -11 0 -5 -5 -7 -10 -4 -6 3 -13 -1 -16 -9 -3 -8 -14
-18 -25 -21 -12 -4 -18 -14 -17 -30 2 -24 18 -24 18 0 0 8 8 12 19 10 11 -2
26 4 33 13 12 15 11 16 -4 3 -12 -9 -18 -10 -18 -2 0 11 13 15 39 12 7 -2 10
3 6 9 -4 6 -1 9 7 8 7 -2 12 2 11 9 -2 8 4 10 14 6 10 -4 12 -8 6 -10 -7 -3
-9 -12 -6 -21 3 -11 2 -13 -4 -6 -8 12 -24 2 -33 -21 -7 -19 -28 -34 -36 -27
-5 4 -2 -1 6 -11 7 -10 9 -17 4 -16 -16 4 -44 -13 -38 -22 3 -5 0 -9 -5 -9 -6
0 -11 -7 -11 -16 0 -8 -4 -13 -9 -9 -5 3 -12 -4 -16 -15 -3 -11 -11 -20 -16
-20 -6 0 -7 -4 -4 -10 3 -5 2 -10 -3 -10 -6 0 -15 -13 -21 -30 -5 -16 -15 -30
-21 -30 -6 0 -9 -4 -6 -9 3 -5 -1 -12 -10 -15 -8 -3 -12 -10 -9 -16 3 -5 1
-10 -6 -10 -7 0 -9 -3 -6 -7 4 -3 -1 -15 -10 -26 -10 -11 -12 -17 -6 -13 9 5
11 2 7 -8 -3 -9 -11 -13 -17 -9 -6 3 -7 1 -3 -5 3 -6 -3 -27 -14 -47 -11 -20
-15 -33 -8 -29 6 4 2 -7 -11 -24 -12 -18 -19 -36 -16 -42 3 -5 1 -10 -5 -10
-6 0 -8 -5 -5 -10 3 -5 3 -16 -2 -22 -4 -7 -8 -24 -9 -37 0 -13 -9 -30 -19
-38 -11 -7 -15 -13 -9 -13 5 0 2 -5 -6 -10 -12 -8 -12 -10 -1 -10 11 0 11 -3
1 -15 -6 -8 -9 -19 -5 -25 3 -5 0 -10 -7 -10 -9 0 -9 -3 2 -10 11 -7 11 -10 2
-10 -7 0 -10 -5 -7 -10 4 -6 1 -18 -7 -27 -11 -14 -11 -16 1 -8 10 6 12 4 6
-6 -9 -13 -14 -34 -17 -71 -3 -24 -7 -23 -34 9 -13 16 -24 26 -25 23 -6 -35
-4 -50 7 -50 19 0 28 -45 14 -67 -10 -15 -11 -15 -6 -1 3 12 1 15 -10 11 -7
-3 -14 0 -14 6 0 6 -7 11 -15 11 -8 0 -15 5 -15 11 0 5 -5 7 -10 4 -7 -4 -4
-13 8 -23 10 -10 21 -25 25 -35 4 -9 10 -17 14 -16 22 4 35 -2 30 -15 -3 -7 0
-19 6 -26 9 -10 9 -11 -2 -5 -11 6 -13 1 -9 -24 2 -17 1 -31 -3 -31 -4 0 -3
-16 1 -35 5 -23 4 -36 -4 -39 -7 -3 -6 -5 2 -5 7 -1 10 -6 7 -11 -3 -6 0 -10
7 -10 9 0 9 -3 -2 -10 -11 -7 -11 -10 -2 -10 10 0 10 -5 2 -20 -8 -15 -8 -20
1 -20 8 0 9 -4 0 -13 -6 -8 -8 -17 -4 -21 6 -6 10 -16 17 -56 2 -8 7 -23 11
-32 4 -10 4 -25 1 -33 -3 -9 1 -18 9 -21 9 -4 15 -19 15 -35 0 -16 4 -29 8
-29 4 0 9 -10 9 -22 1 -13 7 -24 13 -26 8 -3 7 -8 -1 -18 -8 -10 -8 -14 0 -14
6 0 11 -7 11 -15 0 -9 7 -18 16 -22 8 -3 13 -11 10 -19 -3 -7 -1 -14 4 -16 5
-2 10 -10 12 -18 2 -8 11 -21 20 -30 9 -8 18 -24 20 -35 2 -11 11 -28 21 -37
10 -9 18 -19 18 -22 -2 -19 0 -29 5 -23 10 9 32 -16 27 -30 -3 -7 1 -13 8 -13
7 0 10 -3 6 -6 -8 -8 16 -33 25 -27 4 2 5 -2 2 -10 -3 -8 2 -17 10 -20 9 -4
16 -14 16 -24 0 -14 2 -15 9 -5 6 10 10 8 16 -10 4 -12 7 -26 6 -30 -1 -5 2
-7 7 -6 15 3 42 -15 42 -28 0 -8 5 -14 10 -14 6 0 10 -7 10 -16 0 -8 4 -12 10
-9 5 3 10 -1 10 -10 0 -9 3 -14 7 -12 5 3 14 -1 21 -9 10 -11 10 -14 0 -14 -7
0 -1 -8 12 -17 14 -10 32 -26 40 -36 8 -10 25 -19 37 -20 12 0 21 -6 20 -12
-1 -5 6 -9 15 -9 10 1 16 -1 14 -5 -2 -3 8 -17 22 -31 13 -14 21 -18 18 -10
-4 8 -1 7 7 -3 15 -18 15 -18 20 0 3 12 5 8 6 -10 0 -16 5 -26 11 -22 6 3 10
2 10 -4 0 -5 9 -13 20 -16 11 -3 20 -12 20 -20 0 -7 8 -12 17 -11 19 3 43 -16
43 -33 0 -5 9 -8 20 -6 11 2 23 -2 27 -10 5 -7 17 -15 28 -17 11 -1 26 -11 33
-20 7 -10 22 -18 33 -18 10 0 19 -5 19 -11 0 -5 4 -8 9 -4 5 3 16 -1 24 -9 8
-8 17 -12 21 -9 3 4 6 0 6 -7 0 -7 3 -10 7 -7 3 4 12 2 19 -4 8 -6 21 -9 29
-5 9 3 13 2 10 -4 -3 -6 1 -10 10 -10 9 0 14 -4 11 -9 -4 -5 3 -7 14 -4 11 3
20 0 20 -6 0 -6 14 -11 31 -11 17 0 38 -7 46 -16 12 -11 18 -12 23 -4 6 9 9 9
15 0 4 -6 13 -9 21 -6 8 3 13 0 11 -7 -1 -6 9 -11 25 -11 15 1 25 -3 22 -7 -3
-5 6 -9 20 -9 14 0 26 -4 26 -9 0 -6 9 -8 20 -6 11 2 20 -1 20 -7 0 -6 3 -8 7
-5 3 4 12 -1 19 -11 11 -14 13 -14 14 -2 0 12 4 10 15 -4 8 -11 15 -15 15 -10
0 6 7 11 15 11 8 0 15 -3 15 -7 0 -4 12 -6 28 -5 15 1 37 -4 50 -12 12 -7 28
-13 35 -11 6 1 22 -4 35 -11 13 -7 30 -10 38 -7 8 3 14 1 14 -5 0 -6 4 -8 9
-4 5 3 13 1 16 -5 5 -8 12 -7 23 2 13 11 14 11 7 -1 -6 -11 -4 -13 9 -8 10 4
15 3 11 -3 -4 -6 8 -11 27 -11 73 -3 112 -9 117 -17 3 -4 22 -9 41 -10 19 -2
37 -8 41 -14 6 -9 11 -9 21 0 11 9 17 9 26 0 9 -9 12 -9 12 0 0 10 5 10 20 2
11 -6 20 -8 20 -5 0 3 9 1 20 -5 15 -8 20 -8 20 2 0 9 3 9 10 -2 5 -8 10 -10
10 -5 0 10 96 12 106 2 3 -3 12 -3 20 0 8 3 14 -1 14 -8 0 -12 2 -12 9 0 6 9
10 10 16 2 5 -9 10 -9 21 0 11 9 14 9 14 -1 0 -9 3 -10 13 -1 10 8 17 7 25 -1
9 -9 12 -9 12 1 0 10 3 11 14 2 11 -9 16 -9 21 0 6 8 10 7 16 -2 7 -12 9 -12
9 0 0 11 3 11 15 1 12 -10 15 -10 15 0 0 8 4 9 13 4 6 -5 19 -9 27 -8 8 1 21
2 28 3 8 1 10 6 6 14 -6 9 -5 9 8 0 8 -7 19 -9 23 -5 5 4 6 2 2 -3 -3 -6 3
-17 15 -24 11 -7 17 -8 13 -2 -3 6 -1 11 6 11 8 0 7 5 -2 17 -12 14 -12 16 0
8 9 -5 19 -2 28 10 9 14 13 15 13 4 1 -10 4 -10 14 4 9 12 16 14 21 7 3 -5 11
-8 16 -4 5 3 6 10 3 16 -4 6 2 5 15 -1 17 -10 22 -9 27 4 5 13 9 13 22 3 12
-10 14 -10 8 -1 -4 7 -3 13 3 13 5 0 12 -6 14 -12 3 -8 6 -5 6 6 1 14 7 17 26
14 15 -3 22 -1 18 5 -4 6 0 8 10 4 9 -3 18 0 21 9 3 8 11 13 18 12 7 -2 12 3
11 9 -2 7 3 12 10 10 6 -1 11 4 9 11 -2 10 2 10 19 0 18 -11 23 -10 39 10 11
13 24 21 30 17 5 -3 10 2 10 12 0 15 2 16 10 3 8 -13 10 -12 10 3 0 10 4 16 9
12 6 -3 15 4 21 15 6 11 16 20 23 20 7 0 23 10 37 21 14 11 19 17 11 13 -9 -5
-12 -3 -7 4 4 7 13 12 21 12 8 0 12 8 10 19 -2 10 2 18 8 18 43 -1 50 3 36 20
-9 10 -9 14 -2 10 7 -5 17 1 23 13 6 11 15 18 21 15 5 -4 9 -3 8 2 -3 20 2 34
11 28 9 -6 14 8 11 28 0 4 6 7 14 7 14 0 20 13 15 35 -1 5 1 7 5 3 10 -10 35
17 35 37 0 9 3 14 8 12 4 -3 13 1 20 9 7 8 9 14 5 14 -4 0 -2 5 5 12 7 7 12
20 12 30 0 10 4 18 10 18 5 0 9 3 9 8 -1 4 0 10 1 15 1 4 3 10 5 15 1 4 7 20
14 37 7 16 10 37 8 47 -3 10 -1 18 5 18 6 0 8 7 4 15 -3 8 -2 15 3 15 5 0 9 6
8 13 -1 30 4 48 11 43 5 -3 9 1 9 9 0 8 -5 15 -10 15 -5 0 2 15 16 33 19 25
23 37 16 50 -7 11 -6 17 1 17 6 0 9 4 5 9 -3 6 2 14 11 19 10 6 12 12 6 16 -6
3 -7 19 -2 40 4 19 5 37 2 40 -3 4 1 6 8 6 11 0 11 3 2 12 -9 9 -8 16 6 32 12
14 13 17 2 11 -13 -8 -13 -7 -1 9 16 20 32 5 26 -26 -2 -10 1 -18 6 -18 6 0 7
-5 3 -12 -4 -6 -3 -8 3 -5 6 4 13 16 16 27 3 11 2 18 -3 15 -4 -3 -10 2 -14
10 -3 8 -1 15 5 15 6 0 5 8 -2 22 -8 15 -9 23 -1 26 7 2 7 13 2 33 -5 18 -5
29 1 29 6 0 5 8 -1 20 -6 11 -7 20 -2 20 6 0 12 9 15 20 3 11 0 20 -6 20 -9 0
-9 2 -1 8 6 4 10 15 8 24 -1 11 4 18 14 19 11 0 12 2 4 6 -6 2 -10 9 -7 14 11
17 33 -15 24 -33 -7 -12 -6 -18 1 -18 7 0 7 -7 -1 -21 -8 -15 -8 -19 0 -15 7
5 11 -2 11 -18 0 -14 4 -26 10 -26 5 0 7 -6 4 -14 -3 -8 -1 -17 4 -20 10 -6
11 49 1 59 -4 3 -4 20 0 38 8 37 4 67 -10 67 -6 0 -6 8 1 19 5 11 6 22 2 25
-11 7 -9 36 5 60 6 12 7 30 3 48 -6 18 -5 30 3 35 7 5 13 17 13 28 3 36 16 65
27 58 6 -4 8 0 4 9 -3 9 3 24 14 34 10 9 19 21 19 27 0 16 47 66 55 59 5 -4 5
-2 2 4 -6 11 26 67 35 59 2 -3 11 6 18 20 7 13 22 27 32 31 10 3 17 8 15 12
-4 9 71 81 78 74 3 -3 5 0 5 6 0 7 8 12 17 12 9 0 13 3 10 7 -4 4 6 12 23 19
17 7 29 19 28 26 -2 8 5 12 16 10 11 -2 15 1 11 7 -3 6 -2 11 2 11 5 0 18 7
29 16 10 8 12 12 4 8 -13 -7 -13 -5 -1 9 7 9 17 14 22 11 8 -5 13 9 10 29 0 4
5 7 13 7 8 0 18 9 21 20 4 11 11 18 16 15 5 -4 9 -1 9 4 0 6 6 10 13 8 6 -1
11 4 10 11 -2 6 2 12 7 12 7 0 6 8 -1 23 -12 21 -11 21 6 7 17 -14 18 -13 12
3 -4 11 -3 16 3 12 14 -9 37 17 34 38 -1 9 2 17 7 17 6 0 7 6 2 12 -4 7 -6 26
-4 42 2 18 -1 26 -8 22 -6 -4 -11 0 -11 10 0 10 -3 14 -7 11 -10 -11 -32 13
-26 29 4 10 0 12 -11 8 -9 -3 -16 -1 -16 6 0 6 -4 8 -10 5 -5 -3 -10 -3 -10 2
0 4 -14 16 -31 25 -17 10 -27 12 -22 5 4 -6 -5 -4 -20 6 -14 9 -33 17 -42 17
-9 0 -14 3 -11 8 2 4 -7 12 -20 19 -13 6 -22 7 -18 2 3 -5 -2 -6 -10 -3 -9 3
-13 11 -9 17 3 5 1 7 -4 4 -6 -4 -25 0 -42 9 -17 8 -35 13 -40 10 -5 -4 -11
-1 -13 5 -2 6 -16 12 -31 12 -16 0 -24 4 -20 10 4 6 1 7 -7 2 -8 -5 -18 -1
-27 10 -7 11 -13 13 -13 7 0 -8 -9 -7 -27 5 -15 10 -28 17 -30 16 -3 -3 -10
-3 -28 2 -5 1 -16 3 -23 3 -7 1 -11 6 -8 11 3 5 0 9 -7 8 -32 -1 -48 4 -42 14
4 6 13 8 21 5 8 -3 14 -1 14 4 0 5 6 7 14 4 8 -3 17 0 21 5 3 6 11 8 17 5 7
-5 9 -1 5 9 -4 11 -1 17 9 17 8 0 22 7 30 15 14 13 14 15 -1 15 -9 0 -23 -7
-32 -15 -8 -8 -19 -13 -24 -10 -5 4 -9 1 -9 -5 0 -7 -7 -10 -15 -6 -8 3 -15 1
-15 -4 0 -5 -7 -7 -15 -4 -8 4 -15 2 -15 -4 0 -6 -8 -8 -19 -5 -10 3 -22 0
-26 -7 -5 -8 -11 -6 -22 7 -8 10 -11 11 -7 3 7 -13 5 -13 -9 -1 -9 7 -17 10
-17 5 0 -5 -4 -4 -8 3 -4 6 -14 13 -22 15 -26 6 -39 22 -28 36 8 9 6 11 -8 6
-15 -5 -16 -4 -4 4 10 8 19 7 29 -1 10 -8 13 -8 8 -1 -9 16 28 25 43 10 8 -8
10 -7 5 5 -6 16 -55 33 -55 20 0 -4 -9 -7 -19 -7 -11 0 -18 3 -15 7 2 4 -3 9
-11 13 -8 3 -15 2 -15 -3 0 -4 -7 -8 -15 -8 -8 0 -11 5 -8 10 4 6 0 8 -9 4 -9
-3 -26 0 -40 7 -13 7 -29 11 -36 8 -6 -2 -12 5 -12 15 0 12 -3 14 -8 6 -6 -9
-19 -2 -47 23 -22 19 -45 32 -52 30 -7 -3 -13 -1 -13 4 0 6 -7 10 -15 10 -8 0
-15 9 -15 20 0 11 7 20 15 20 8 0 15 -6 15 -12 0 -9 4 -8 10 2 8 12 10 12 10
1 0 -11 3 -11 16 -1 12 11 15 11 12 -1 -2 -10 5 -13 25 -11 16 2 27 -1 27 -9
0 -9 4 -8 15 1 10 8 15 9 15 1 0 -7 8 -8 25 -1 14 5 25 6 25 1 0 -13 80 -19
80 -6 0 5 7 1 15 -9 9 -12 15 -15 15 -7 0 10 3 11 13 3 8 -7 18 -7 27 -2 8 5
21 5 32 -1 10 -5 18 -6 18 -1 0 4 9 8 20 8 11 0 20 -4 20 -8 0 -5 9 -4 20 2
14 8 20 8 20 0 0 -7 6 -8 18 -2 9 5 27 8 40 7 12 -1 22 3 22 9 0 6 5 4 10 -4
6 -9 10 -11 10 -3 0 7 7 10 15 7 9 -4 15 0 15 7 0 11 3 11 10 -1 7 -11 10 -11
10 -2 0 7 4 11 8 8 4 -2 14 -1 22 4 9 5 20 4 29 -3 8 -7 12 -7 9 -1 -4 5 6 15
23 21 20 8 29 8 29 1 0 -6 9 -1 20 12 11 13 20 18 20 11 0 -9 4 -8 14 1 8 7
11 17 8 22 -3 5 0 6 6 3 15 -10 43 3 35 16 -3 5 -1 7 5 4 14 -9 43 3 36 14 -3
5 2 9 11 9 9 0 13 5 10 10 -3 6 3 10 15 10 12 0 18 5 15 10 -3 6 1 10 10 10 9
0 13 5 10 10 -3 6 1 13 9 16 9 3 16 12 16 19 0 9 8 12 23 9 12 -3 28 -6 35 -6
6 -1 12 -6 12 -11 0 -5 8 -3 17 4 11 10 14 10 9 2 -6 -12 10 -16 40 -12 4 0
10 -5 14 -11 4 -7 19 -12 34 -12 14 0 26 -4 26 -8 0 -5 10 -6 22 -2 12 3 19 1
15 -5 -3 -5 0 -10 8 -10 8 0 15 5 15 10 0 6 5 6 13 0 6 -5 19 -9 27 -8 8 0 18
-4 22 -10 5 -6 8 -4 8 4 0 11 4 9 15 -5 8 -10 15 -14 15 -9 0 6 9 11 19 11 11
0 18 -3 15 -7 -7 -12 23 -18 35 -6 6 6 11 7 11 1 0 -5 16 -11 35 -12 27 -2 35
1 35 14 0 10 -5 14 -15 10 -8 -3 -15 -1 -15 4 0 6 -5 10 -11 10 -5 0 -7 -5 -3
-11 4 -8 0 -8 -15 0 -11 7 -37 12 -56 13 -19 1 -35 5 -35 10 0 4 -3 7 -7 7
-31 -5 -73 3 -67 12 5 8 1 8 -14 0 -26 -14 -35 -14 -27 -1 5 8 -31 15 -57 11
-5 0 -8 5 -8 11 0 9 -4 8 -10 -2 -8 -12 -10 -12 -10 -1 0 8 -7 11 -20 8 -13
-3 -18 -1 -13 6 4 6 0 8 -10 4 -10 -3 -17 -3 -17 2 0 4 -6 8 -12 9 -64 6 -72
15 -50 56 9 17 15 34 14 39 -1 4 3 7 10 7 6 0 8 3 5 7 -4 3 -2 12 4 20 6 7 8
13 5 13 -4 0 -2 9 4 20 7 14 7 20 0 20 -5 0 -10 5 -10 11 0 5 5 7 12 3 8 -5 9
0 6 14 -4 13 -1 22 5 22 9 0 9 2 0 8 -7 4 -13 27 -14 50 -2 23 -7 42 -11 42
-5 0 -4 10 3 21 8 15 8 19 0 15 -7 -4 -11 1 -11 13 0 12 -4 21 -10 21 -5 0
-10 10 -10 23 0 13 -8 32 -17 43 -10 11 -19 26 -21 34 -2 8 -8 17 -13 18 -5 2
-7 8 -3 13 3 5 -2 9 -11 9 -9 0 -14 4 -11 9 5 7 -2 19 -43 67 -5 7 -7 15 -4
18 4 3 -1 6 -10 6 -9 0 -19 11 -23 25 -3 14 -10 22 -15 19 -5 -3 -9 2 -9 11 0
9 -4 13 -10 10 -5 -3 -10 0 -10 7 0 14 -56 68 -70 68 -5 0 -21 18 -37 40 -15
22 -32 40 -37 40 -5 0 -17 10 -27 22 -11 11 -19 18 -19 14 0 -3 -15 8 -34 26
-46 45 -63 58 -76 58 -6 0 -8 5 -5 10 3 6 -1 10 -9 10 -9 0 -16 5 -16 10 0 6
-7 10 -15 10 -8 0 -15 8 -15 18 0 14 -2 15 -10 2 -8 -13 -10 -12 -10 3 0 9 -7
17 -15 17 -8 0 -15 4 -15 8 0 10 -56 43 -64 37 -3 -3 -4 -2 -1 1 5 8 -20 34
-34 34 -6 0 -11 5 -11 10 0 6 -7 10 -15 10 -8 0 -15 5 -15 10 0 6 -5 10 -11
10 -6 0 -17 7 -26 15 -8 8 -19 12 -25 9 -6 -4 -8 -2 -4 4 3 6 -7 16 -24 24
-16 7 -30 16 -30 20 0 5 -6 8 -14 8 -8 0 -16 7 -20 15 -3 8 -12 12 -21 9 -8
-3 -15 -1 -15 5 0 6 -7 11 -15 11 -8 0 -15 5 -15 10 0 6 -7 10 -15 10 -8 0
-15 5 -15 12 0 6 -3 9 -6 5 -4 -3 -12 -1 -20 6 -39 35 -42 37 -47 24 -3 -7 -6
-4 -6 7 -1 12 -6 16 -16 12 -8 -3 -15 -1 -15 4 0 6 -5 10 -11 10 -6 0 -17 7
-26 15 -8 8 -19 13 -24 10 -5 -4 -9 -1 -9 4 0 6 -7 11 -15 11 -8 0 -15 5 -15
10 0 6 -5 10 -11 10 -7 0 -18 8 -26 18 -8 10 -11 11 -7 2 7 -13 5 -13 -9 -1
-9 7 -17 10 -17 5 0 -4 -7 1 -15 12 -14 18 -14 18 -10 -5 3 -14 8 -27 12 -30
14 -10 35 -54 23 -46 -7 5 -7 0 1 -13 17 -27 7 -37 -20 -22 -12 6 -26 8 -31 5
-6 -3 -10 -1 -10 5 0 7 -6 10 -12 7 -7 -2 -19 3 -26 12 -8 9 -11 11 -7 4 4 -9
-3 -8 -21 2 -15 8 -31 12 -36 9 -4 -3 -8 -1 -8 4 0 6 -7 13 -16 16 -8 3 -12 2
-9 -4 3 -6 -1 -7 -9 -4 -9 3 -16 11 -16 16 0 6 -8 4 -17 -3 -11 -10 -14 -10
-9 -1 4 6 2 13 -3 13 -21 3 -57 16 -85 30 -14 8 -16 8 -10 -3 4 -7 -2 -5 -13
5 -23 20 -37 23 -27 5 4 -7 -2 -4 -14 6 -12 11 -22 16 -22 11 0 -4 -6 -2 -13
4 -8 6 -17 8 -20 4 -4 -3 -7 -1 -7 6 0 7 -4 9 -10 6 -5 -3 -20 0 -32 7 -13 7
-27 11 -32 10 -4 -2 -15 3 -24 10 -13 11 -14 11 -7 -2 5 -9 -1 -7 -15 5 -13
11 -20 14 -16 7 6 -11 4 -11 -13 -3 -56 29 -59 29 -71 18 -10 -9 -11 -9 -5 2
6 11 2 13 -18 9 -15 -3 -24 -1 -21 3 5 9 4 10 -35 14 -13 1 -27 9 -32 16 -7
12 -9 11 -9 -1 0 -13 -1 -13 -10 0 -5 8 -10 11 -10 6 0 -6 -5 -5 -11 1 -6 6
-18 9 -25 6 -8 -3 -14 1 -14 8 0 11 -3 11 -10 -1 -6 -10 -10 -11 -10 -2 0 6
-12 12 -26 12 -14 0 -23 3 -20 8 2 4 -13 7 -35 7 -21 0 -39 2 -39 6 0 3 -12
11 -26 17 -14 7 -23 8 -19 2 3 -5 1 -10 -4 -10 -6 0 -11 6 -11 13 0 8 -4 7
-10 -3 -7 -12 -10 -12 -10 -1 0 7 -6 11 -14 8 -8 -3 -16 -1 -19 6 -2 8 -5 8
-10 0z m-216 -1200 c13 -16 12 -17 -3 -4 -17 13 -22 21 -14 21 2 0 10 -8 17
-17z"/>
<path d="M611 2936 l-22 -23 22 1 c16 1 23 8 24 24 2 27 3 27 -24 -2z"/>
<path d="M465 2757 c-5 -7 -11 -21 -13 -32 -3 -18 -2 -18 13 3 17 24 17 48 0
29z"/>
</g>
</svg>
